<svg width="302" height="42" viewBox="0 0 302 42" fill="none" xmlns="http://www.w3.org/2000/svg">
<mask id="path-1-outside-1_143_474" maskUnits="userSpaceOnUse" x="124.632" y="1.25293" width="178" height="41" fill="black">
<rect fill="white" x="124.632" y="1.25293" width="178" height="41"/>
<path d="M147.409 14.5547C147.314 13.327 146.864 12.3694 146.061 11.6818C145.271 10.9943 144.066 10.6506 142.449 10.6506C141.418 10.6506 140.573 10.7795 139.914 11.0373C139.267 11.2828 138.788 11.6205 138.477 12.0502C138.165 12.4799 138.003 12.9709 137.991 13.5234C137.967 13.9777 138.045 14.389 138.225 14.7573C138.417 15.1133 138.716 15.4387 139.124 15.7333C139.531 16.0157 140.052 16.2735 140.687 16.5068C141.322 16.7401 142.077 16.9488 142.952 17.1329L145.972 17.7959C148.009 18.2379 149.752 18.821 151.202 19.5454C152.652 20.2698 153.838 21.123 154.761 22.1052C155.683 23.0751 156.36 24.1678 156.792 25.3832C157.235 26.5987 157.463 27.9246 157.475 29.361C157.463 31.841 156.858 33.9405 155.659 35.6593C154.461 37.3781 152.748 38.6856 150.519 39.5818C148.302 40.4781 145.636 40.9262 142.521 40.9262C139.321 40.9262 136.529 40.4412 134.145 39.4713C131.772 38.5014 129.927 37.0098 128.609 34.9963C127.303 32.9706 126.644 30.3801 126.632 27.2248H136.122C136.182 28.3789 136.463 29.3488 136.967 30.1345C137.47 30.9203 138.177 31.5157 139.088 31.9208C140.01 32.326 141.107 32.5286 142.377 32.5286C143.443 32.5286 144.336 32.3935 145.055 32.1234C145.774 31.8533 146.319 31.4789 146.691 31.0001C147.062 30.5212 147.254 29.9749 147.266 29.361C147.254 28.784 147.068 28.2807 146.709 27.8509C146.361 27.409 145.786 27.0161 144.983 26.6723C144.18 26.3163 143.096 25.9848 141.73 25.6779L138.063 24.8676C134.804 24.1432 132.234 22.9339 130.352 21.2397C128.483 19.5331 127.554 17.2066 127.566 14.2601C127.554 11.866 128.178 9.77273 129.436 7.98026C130.706 6.1755 132.461 4.76976 134.702 3.76303C136.955 2.7563 139.537 2.25293 142.449 2.25293C145.42 2.25293 147.991 2.76243 150.159 3.78144C152.328 4.80045 154 6.23689 155.174 8.09075C156.36 9.93234 156.96 12.087 156.972 14.5547H147.409Z"/>
<path d="M174.649 40.9999C171.701 40.9999 169.161 40.4228 167.028 39.2688C164.907 38.1024 163.271 36.4327 162.121 34.2597C160.983 32.0743 160.413 29.4593 160.413 26.4145C160.413 23.4925 160.989 20.9389 162.139 18.7535C163.289 16.5682 164.913 14.8678 167.01 13.6523C169.107 12.4369 171.581 11.8292 174.433 11.8292C176.518 11.8292 178.405 12.1607 180.095 12.8236C181.784 13.4866 183.228 14.4504 184.426 15.7149C185.625 16.9672 186.547 18.4896 187.194 20.282C187.841 22.0745 188.165 24.0941 188.165 26.3408V28.6981H163.505V23.0997H179.034C179.022 22.2894 178.819 21.5773 178.423 20.9634C178.04 20.3373 177.519 19.8523 176.859 19.5086C176.212 19.1525 175.476 18.9745 174.649 18.9745C173.846 18.9745 173.109 19.1525 172.438 19.5086C171.767 19.8523 171.228 20.3311 170.82 20.945C170.425 21.5589 170.215 22.2771 170.191 23.0997V29.1401C170.191 30.0486 170.377 30.8589 170.748 31.5709C171.12 32.283 171.653 32.8416 172.348 33.2468C173.043 33.6519 173.882 33.8545 174.864 33.8545C175.547 33.8545 176.17 33.7563 176.734 33.5599C177.309 33.3634 177.8 33.081 178.208 32.7127C178.615 32.3321 178.914 31.8779 179.106 31.35H188.165C187.853 33.3143 187.117 35.0208 185.954 36.4696C184.792 37.906 183.252 39.0232 181.335 39.8212C179.43 40.607 177.201 40.9999 174.649 40.9999Z"/>
<path d="M199.906 40.9262C198.145 40.9262 196.587 40.6315 195.233 40.0422C193.891 39.4406 192.837 38.5321 192.07 37.3167C191.303 36.1012 190.919 34.5543 190.919 32.6759C190.919 31.129 191.177 29.8092 191.692 28.7165C192.208 27.6115 192.927 26.7092 193.849 26.0094C194.772 25.3096 195.844 24.7755 197.066 24.4072C198.301 24.0389 199.631 23.7995 201.057 23.689C202.602 23.5662 203.843 23.4189 204.777 23.247C205.724 23.0628 206.407 22.8111 206.826 22.4919C207.246 22.1605 207.455 21.7246 207.455 21.1844V21.1107C207.455 20.3741 207.18 19.8094 206.629 19.4165C206.077 19.0236 205.37 18.8272 204.508 18.8272C203.561 18.8272 202.788 19.042 202.189 19.4717C201.602 19.8892 201.248 20.5337 201.129 21.4054H191.998C192.118 19.6866 192.651 18.1028 193.598 16.6541C194.556 15.1931 195.952 14.0268 197.785 13.1551C199.619 12.2711 201.907 11.8292 204.651 11.8292C206.629 11.8292 208.402 12.0686 209.972 12.5474C211.541 13.0139 212.877 13.6708 213.98 14.5179C215.082 15.3527 215.921 16.3349 216.496 17.4644C217.083 18.5816 217.377 19.7971 217.377 21.1107V40.4842H208.102V36.5064H207.887C207.335 37.5622 206.664 38.4155 205.874 39.0662C205.095 39.7169 204.202 40.1896 203.196 40.4842C202.201 40.7789 201.105 40.9262 199.906 40.9262ZM203.142 34.5175C203.896 34.5175 204.603 34.3579 205.263 34.0387C205.934 33.7195 206.479 33.2591 206.898 32.6575C207.317 32.0559 207.527 31.3254 207.527 30.466V28.1088C207.264 28.2193 206.982 28.3236 206.682 28.4218C206.395 28.5201 206.083 28.6121 205.748 28.6981C205.424 28.784 205.077 28.8638 204.705 28.9375C204.346 29.0111 203.968 29.0787 203.573 29.1401C202.806 29.2628 202.177 29.4654 201.686 29.7478C201.206 30.0179 200.847 30.3555 200.607 30.7607C200.38 31.1535 200.266 31.5955 200.266 32.0866C200.266 32.8723 200.535 33.4739 201.075 33.8913C201.614 34.3088 202.303 34.5175 203.142 34.5175Z"/>
<path d="M222.117 40.4842V12.1975H231.751V17.5749H232.039C232.542 15.586 233.339 14.1311 234.429 13.2104C235.532 12.2896 236.82 11.8292 238.294 11.8292C238.725 11.8292 239.151 11.866 239.57 11.9397C240.001 12.001 240.415 12.0931 240.81 12.2159V20.8898C240.319 20.7179 239.714 20.589 238.995 20.503C238.276 20.4171 237.659 20.3741 237.143 20.3741C236.173 20.3741 235.298 20.6012 234.519 21.0555C233.752 21.4975 233.147 22.1236 232.704 22.9339C232.261 23.7319 232.039 24.6711 232.039 25.7515V40.4842H222.117Z"/>
<path d="M255.782 40.9999C252.787 40.9999 250.222 40.3921 248.089 39.1767C245.957 37.949 244.321 36.2424 243.183 34.0571C242.044 31.8595 241.475 29.3119 241.475 26.4145C241.475 23.5171 242.044 20.9757 243.183 18.7904C244.321 16.5927 245.957 14.8862 248.089 13.6707C250.222 12.443 252.787 11.8292 255.782 11.8292C258.49 11.8292 260.833 12.3325 262.81 13.3393C264.799 14.3337 266.339 15.7456 267.429 17.5749C268.52 19.3919 269.071 21.5282 269.083 23.9836H259.88C259.748 22.4981 259.329 21.3686 258.622 20.5951C257.927 19.8094 257.028 19.4165 255.926 19.4165C255.063 19.4165 254.308 19.6743 253.661 20.19C253.014 20.6933 252.511 21.4607 252.152 22.4919C251.792 23.5109 251.612 24.7939 251.612 26.3408C251.612 27.8878 251.792 29.1769 252.152 30.2082C252.511 31.2272 253.014 31.9945 253.661 32.5102C254.308 33.0135 255.063 33.2652 255.926 33.2652C256.657 33.2652 257.304 33.0933 257.867 32.7496C258.43 32.3935 258.886 31.8779 259.233 31.2026C259.593 30.5151 259.808 29.6803 259.88 28.6981H269.083C269.047 31.1904 268.49 33.3634 267.411 35.2173C266.333 37.0589 264.805 38.483 262.828 39.4898C260.863 40.4965 258.514 40.9999 255.782 40.9999Z"/>
<path d="M283.098 24.5729V40.4842H273.176V2.76857H282.738V17.5749H283.026C283.649 15.7702 284.686 14.3644 286.135 13.3577C287.585 12.3387 289.329 11.8292 291.366 11.8292C293.319 11.8292 295.014 12.2834 296.452 13.1919C297.902 14.1005 299.023 15.3527 299.813 16.9488C300.616 18.5448 301.012 20.3741 301 22.4367V40.4842H291.078V24.5729C291.09 23.1733 290.749 22.0745 290.054 21.2765C289.371 20.4785 288.394 20.0795 287.124 20.0795C286.321 20.0795 285.614 20.2636 285.003 20.6319C284.404 20.988 283.937 21.5036 283.601 22.1789C283.278 22.8418 283.11 23.6399 283.098 24.5729Z"/>
</mask>
<path d="M147.409 14.5547C147.314 13.327 146.864 12.3694 146.061 11.6818C145.271 10.9943 144.066 10.6506 142.449 10.6506C141.418 10.6506 140.573 10.7795 139.914 11.0373C139.267 11.2828 138.788 11.6205 138.477 12.0502C138.165 12.4799 138.003 12.9709 137.991 13.5234C137.967 13.9777 138.045 14.389 138.225 14.7573C138.417 15.1133 138.716 15.4387 139.124 15.7333C139.531 16.0157 140.052 16.2735 140.687 16.5068C141.322 16.7401 142.077 16.9488 142.952 17.1329L145.972 17.7959C148.009 18.2379 149.752 18.821 151.202 19.5454C152.652 20.2698 153.838 21.123 154.761 22.1052C155.683 23.0751 156.36 24.1678 156.792 25.3832C157.235 26.5987 157.463 27.9246 157.475 29.361C157.463 31.841 156.858 33.9405 155.659 35.6593C154.461 37.3781 152.748 38.6856 150.519 39.5818C148.302 40.4781 145.636 40.9262 142.521 40.9262C139.321 40.9262 136.529 40.4412 134.145 39.4713C131.772 38.5014 129.927 37.0098 128.609 34.9963C127.303 32.9706 126.644 30.3801 126.632 27.2248H136.122C136.182 28.3789 136.463 29.3488 136.967 30.1345C137.47 30.9203 138.177 31.5157 139.088 31.9208C140.01 32.326 141.107 32.5286 142.377 32.5286C143.443 32.5286 144.336 32.3935 145.055 32.1234C145.774 31.8533 146.319 31.4789 146.691 31.0001C147.062 30.5212 147.254 29.9749 147.266 29.361C147.254 28.784 147.068 28.2807 146.709 27.8509C146.361 27.409 145.786 27.0161 144.983 26.6723C144.18 26.3163 143.096 25.9848 141.73 25.6779L138.063 24.8676C134.804 24.1432 132.234 22.9339 130.352 21.2397C128.483 19.5331 127.554 17.2066 127.566 14.2601C127.554 11.866 128.178 9.77273 129.436 7.98026C130.706 6.1755 132.461 4.76976 134.702 3.76303C136.955 2.7563 139.537 2.25293 142.449 2.25293C145.42 2.25293 147.991 2.76243 150.159 3.78144C152.328 4.80045 154 6.23689 155.174 8.09075C156.36 9.93234 156.96 12.087 156.972 14.5547H147.409Z" fill="url(#paint0_linear_143_474)"/>
<path d="M174.649 40.9999C171.701 40.9999 169.161 40.4228 167.028 39.2688C164.907 38.1024 163.271 36.4327 162.121 34.2597C160.983 32.0743 160.413 29.4593 160.413 26.4145C160.413 23.4925 160.989 20.9389 162.139 18.7535C163.289 16.5682 164.913 14.8678 167.01 13.6523C169.107 12.4369 171.581 11.8292 174.433 11.8292C176.518 11.8292 178.405 12.1607 180.095 12.8236C181.784 13.4866 183.228 14.4504 184.426 15.7149C185.625 16.9672 186.547 18.4896 187.194 20.282C187.841 22.0745 188.165 24.0941 188.165 26.3408V28.6981H163.505V23.0997H179.034C179.022 22.2894 178.819 21.5773 178.423 20.9634C178.04 20.3373 177.519 19.8523 176.859 19.5086C176.212 19.1525 175.476 18.9745 174.649 18.9745C173.846 18.9745 173.109 19.1525 172.438 19.5086C171.767 19.8523 171.228 20.3311 170.82 20.945C170.425 21.5589 170.215 22.2771 170.191 23.0997V29.1401C170.191 30.0486 170.377 30.8589 170.748 31.5709C171.12 32.283 171.653 32.8416 172.348 33.2468C173.043 33.6519 173.882 33.8545 174.864 33.8545C175.547 33.8545 176.17 33.7563 176.734 33.5599C177.309 33.3634 177.8 33.081 178.208 32.7127C178.615 32.3321 178.914 31.8779 179.106 31.35H188.165C187.853 33.3143 187.117 35.0208 185.954 36.4696C184.792 37.906 183.252 39.0232 181.335 39.8212C179.43 40.607 177.201 40.9999 174.649 40.9999Z" fill="url(#paint1_linear_143_474)"/>
<path d="M199.906 40.9262C198.145 40.9262 196.587 40.6315 195.233 40.0422C193.891 39.4406 192.837 38.5321 192.07 37.3167C191.303 36.1012 190.919 34.5543 190.919 32.6759C190.919 31.129 191.177 29.8092 191.692 28.7165C192.208 27.6115 192.927 26.7092 193.849 26.0094C194.772 25.3096 195.844 24.7755 197.066 24.4072C198.301 24.0389 199.631 23.7995 201.057 23.689C202.602 23.5662 203.843 23.4189 204.777 23.247C205.724 23.0628 206.407 22.8111 206.826 22.4919C207.246 22.1605 207.455 21.7246 207.455 21.1844V21.1107C207.455 20.3741 207.18 19.8094 206.629 19.4165C206.077 19.0236 205.37 18.8272 204.508 18.8272C203.561 18.8272 202.788 19.042 202.189 19.4717C201.602 19.8892 201.248 20.5337 201.129 21.4054H191.998C192.118 19.6866 192.651 18.1028 193.598 16.6541C194.556 15.1931 195.952 14.0268 197.785 13.1551C199.619 12.2711 201.907 11.8292 204.651 11.8292C206.629 11.8292 208.402 12.0686 209.972 12.5474C211.541 13.0139 212.877 13.6708 213.98 14.5179C215.082 15.3527 215.921 16.3349 216.496 17.4644C217.083 18.5816 217.377 19.7971 217.377 21.1107V40.4842H208.102V36.5064H207.887C207.335 37.5622 206.664 38.4155 205.874 39.0662C205.095 39.7169 204.202 40.1896 203.196 40.4842C202.201 40.7789 201.105 40.9262 199.906 40.9262ZM203.142 34.5175C203.896 34.5175 204.603 34.3579 205.263 34.0387C205.934 33.7195 206.479 33.2591 206.898 32.6575C207.317 32.0559 207.527 31.3254 207.527 30.466V28.1088C207.264 28.2193 206.982 28.3236 206.682 28.4218C206.395 28.5201 206.083 28.6121 205.748 28.6981C205.424 28.784 205.077 28.8638 204.705 28.9375C204.346 29.0111 203.968 29.0787 203.573 29.1401C202.806 29.2628 202.177 29.4654 201.686 29.7478C201.206 30.0179 200.847 30.3555 200.607 30.7607C200.38 31.1535 200.266 31.5955 200.266 32.0866C200.266 32.8723 200.535 33.4739 201.075 33.8913C201.614 34.3088 202.303 34.5175 203.142 34.5175Z" fill="url(#paint2_linear_143_474)"/>
<path d="M222.117 40.4842V12.1975H231.751V17.5749H232.039C232.542 15.586 233.339 14.1311 234.429 13.2104C235.532 12.2896 236.82 11.8292 238.294 11.8292C238.725 11.8292 239.151 11.866 239.57 11.9397C240.001 12.001 240.415 12.0931 240.81 12.2159V20.8898C240.319 20.7179 239.714 20.589 238.995 20.503C238.276 20.4171 237.659 20.3741 237.143 20.3741C236.173 20.3741 235.298 20.6012 234.519 21.0555C233.752 21.4975 233.147 22.1236 232.704 22.9339C232.261 23.7319 232.039 24.6711 232.039 25.7515V40.4842H222.117Z" fill="url(#paint3_linear_143_474)"/>
<path d="M255.782 40.9999C252.787 40.9999 250.222 40.3921 248.089 39.1767C245.957 37.949 244.321 36.2424 243.183 34.0571C242.044 31.8595 241.475 29.3119 241.475 26.4145C241.475 23.5171 242.044 20.9757 243.183 18.7904C244.321 16.5927 245.957 14.8862 248.089 13.6707C250.222 12.443 252.787 11.8292 255.782 11.8292C258.49 11.8292 260.833 12.3325 262.81 13.3393C264.799 14.3337 266.339 15.7456 267.429 17.5749C268.52 19.3919 269.071 21.5282 269.083 23.9836H259.88C259.748 22.4981 259.329 21.3686 258.622 20.5951C257.927 19.8094 257.028 19.4165 255.926 19.4165C255.063 19.4165 254.308 19.6743 253.661 20.19C253.014 20.6933 252.511 21.4607 252.152 22.4919C251.792 23.5109 251.612 24.7939 251.612 26.3408C251.612 27.8878 251.792 29.1769 252.152 30.2082C252.511 31.2272 253.014 31.9945 253.661 32.5102C254.308 33.0135 255.063 33.2652 255.926 33.2652C256.657 33.2652 257.304 33.0933 257.867 32.7496C258.43 32.3935 258.886 31.8779 259.233 31.2026C259.593 30.5151 259.808 29.6803 259.88 28.6981H269.083C269.047 31.1904 268.49 33.3634 267.411 35.2173C266.333 37.0589 264.805 38.483 262.828 39.4898C260.863 40.4965 258.514 40.9999 255.782 40.9999Z" fill="url(#paint4_linear_143_474)"/>
<path d="M283.098 24.5729V40.4842H273.176V2.76857H282.738V17.5749H283.026C283.649 15.7702 284.686 14.3644 286.135 13.3577C287.585 12.3387 289.329 11.8292 291.366 11.8292C293.319 11.8292 295.014 12.2834 296.452 13.1919C297.902 14.1005 299.023 15.3527 299.813 16.9488C300.616 18.5448 301.012 20.3741 301 22.4367V40.4842H291.078V24.5729C291.09 23.1733 290.749 22.0745 290.054 21.2765C289.371 20.4785 288.394 20.0795 287.124 20.0795C286.321 20.0795 285.614 20.2636 285.003 20.6319C284.404 20.988 283.937 21.5036 283.601 22.1789C283.278 22.8418 283.11 23.6399 283.098 24.5729Z" fill="url(#paint5_linear_143_474)"/>
<path d="M147.409 14.5547C147.314 13.327 146.864 12.3694 146.061 11.6818C145.271 10.9943 144.066 10.6506 142.449 10.6506C141.418 10.6506 140.573 10.7795 139.914 11.0373C139.267 11.2828 138.788 11.6205 138.477 12.0502C138.165 12.4799 138.003 12.9709 137.991 13.5234C137.967 13.9777 138.045 14.389 138.225 14.7573C138.417 15.1133 138.716 15.4387 139.124 15.7333C139.531 16.0157 140.052 16.2735 140.687 16.5068C141.322 16.7401 142.077 16.9488 142.952 17.1329L145.972 17.7959C148.009 18.2379 149.752 18.821 151.202 19.5454C152.652 20.2698 153.838 21.123 154.761 22.1052C155.683 23.0751 156.36 24.1678 156.792 25.3832C157.235 26.5987 157.463 27.9246 157.475 29.361C157.463 31.841 156.858 33.9405 155.659 35.6593C154.461 37.3781 152.748 38.6856 150.519 39.5818C148.302 40.4781 145.636 40.9262 142.521 40.9262C139.321 40.9262 136.529 40.4412 134.145 39.4713C131.772 38.5014 129.927 37.0098 128.609 34.9963C127.303 32.9706 126.644 30.3801 126.632 27.2248H136.122C136.182 28.3789 136.463 29.3488 136.967 30.1345C137.47 30.9203 138.177 31.5157 139.088 31.9208C140.01 32.326 141.107 32.5286 142.377 32.5286C143.443 32.5286 144.336 32.3935 145.055 32.1234C145.774 31.8533 146.319 31.4789 146.691 31.0001C147.062 30.5212 147.254 29.9749 147.266 29.361C147.254 28.784 147.068 28.2807 146.709 27.8509C146.361 27.409 145.786 27.0161 144.983 26.6723C144.18 26.3163 143.096 25.9848 141.73 25.6779L138.063 24.8676C134.804 24.1432 132.234 22.9339 130.352 21.2397C128.483 19.5331 127.554 17.2066 127.566 14.2601C127.554 11.866 128.178 9.77273 129.436 7.98026C130.706 6.1755 132.461 4.76976 134.702 3.76303C136.955 2.7563 139.537 2.25293 142.449 2.25293C145.42 2.25293 147.991 2.76243 150.159 3.78144C152.328 4.80045 154 6.23689 155.174 8.09075C156.36 9.93234 156.96 12.087 156.972 14.5547H147.409Z" stroke="#6B6B6B" stroke-width="2" mask="url(#path-1-outside-1_143_474)"/>
<path d="M174.649 40.9999C171.701 40.9999 169.161 40.4228 167.028 39.2688C164.907 38.1024 163.271 36.4327 162.121 34.2597C160.983 32.0743 160.413 29.4593 160.413 26.4145C160.413 23.4925 160.989 20.9389 162.139 18.7535C163.289 16.5682 164.913 14.8678 167.01 13.6523C169.107 12.4369 171.581 11.8292 174.433 11.8292C176.518 11.8292 178.405 12.1607 180.095 12.8236C181.784 13.4866 183.228 14.4504 184.426 15.7149C185.625 16.9672 186.547 18.4896 187.194 20.282C187.841 22.0745 188.165 24.0941 188.165 26.3408V28.6981H163.505V23.0997H179.034C179.022 22.2894 178.819 21.5773 178.423 20.9634C178.04 20.3373 177.519 19.8523 176.859 19.5086C176.212 19.1525 175.476 18.9745 174.649 18.9745C173.846 18.9745 173.109 19.1525 172.438 19.5086C171.767 19.8523 171.228 20.3311 170.82 20.945C170.425 21.5589 170.215 22.2771 170.191 23.0997V29.1401C170.191 30.0486 170.377 30.8589 170.748 31.5709C171.12 32.283 171.653 32.8416 172.348 33.2468C173.043 33.6519 173.882 33.8545 174.864 33.8545C175.547 33.8545 176.17 33.7563 176.734 33.5599C177.309 33.3634 177.8 33.081 178.208 32.7127C178.615 32.3321 178.914 31.8779 179.106 31.35H188.165C187.853 33.3143 187.117 35.0208 185.954 36.4696C184.792 37.906 183.252 39.0232 181.335 39.8212C179.43 40.607 177.201 40.9999 174.649 40.9999Z" stroke="#6B6B6B" stroke-width="2" mask="url(#path-1-outside-1_143_474)"/>
<path d="M199.906 40.9262C198.145 40.9262 196.587 40.6315 195.233 40.0422C193.891 39.4406 192.837 38.5321 192.07 37.3167C191.303 36.1012 190.919 34.5543 190.919 32.6759C190.919 31.129 191.177 29.8092 191.692 28.7165C192.208 27.6115 192.927 26.7092 193.849 26.0094C194.772 25.3096 195.844 24.7755 197.066 24.4072C198.301 24.0389 199.631 23.7995 201.057 23.689C202.602 23.5662 203.843 23.4189 204.777 23.247C205.724 23.0628 206.407 22.8111 206.826 22.4919C207.246 22.1605 207.455 21.7246 207.455 21.1844V21.1107C207.455 20.3741 207.18 19.8094 206.629 19.4165C206.077 19.0236 205.37 18.8272 204.508 18.8272C203.561 18.8272 202.788 19.042 202.189 19.4717C201.602 19.8892 201.248 20.5337 201.129 21.4054H191.998C192.118 19.6866 192.651 18.1028 193.598 16.6541C194.556 15.1931 195.952 14.0268 197.785 13.1551C199.619 12.2711 201.907 11.8292 204.651 11.8292C206.629 11.8292 208.402 12.0686 209.972 12.5474C211.541 13.0139 212.877 13.6708 213.98 14.5179C215.082 15.3527 215.921 16.3349 216.496 17.4644C217.083 18.5816 217.377 19.7971 217.377 21.1107V40.4842H208.102V36.5064H207.887C207.335 37.5622 206.664 38.4155 205.874 39.0662C205.095 39.7169 204.202 40.1896 203.196 40.4842C202.201 40.7789 201.105 40.9262 199.906 40.9262ZM203.142 34.5175C203.896 34.5175 204.603 34.3579 205.263 34.0387C205.934 33.7195 206.479 33.2591 206.898 32.6575C207.317 32.0559 207.527 31.3254 207.527 30.466V28.1088C207.264 28.2193 206.982 28.3236 206.682 28.4218C206.395 28.5201 206.083 28.6121 205.748 28.6981C205.424 28.784 205.077 28.8638 204.705 28.9375C204.346 29.0111 203.968 29.0787 203.573 29.1401C202.806 29.2628 202.177 29.4654 201.686 29.7478C201.206 30.0179 200.847 30.3555 200.607 30.7607C200.38 31.1535 200.266 31.5955 200.266 32.0866C200.266 32.8723 200.535 33.4739 201.075 33.8913C201.614 34.3088 202.303 34.5175 203.142 34.5175Z" stroke="#6B6B6B" stroke-width="2" mask="url(#path-1-outside-1_143_474)"/>
<path d="M222.117 40.4842V12.1975H231.751V17.5749H232.039C232.542 15.586 233.339 14.1311 234.429 13.2104C235.532 12.2896 236.82 11.8292 238.294 11.8292C238.725 11.8292 239.151 11.866 239.57 11.9397C240.001 12.001 240.415 12.0931 240.81 12.2159V20.8898C240.319 20.7179 239.714 20.589 238.995 20.503C238.276 20.4171 237.659 20.3741 237.143 20.3741C236.173 20.3741 235.298 20.6012 234.519 21.0555C233.752 21.4975 233.147 22.1236 232.704 22.9339C232.261 23.7319 232.039 24.6711 232.039 25.7515V40.4842H222.117Z" stroke="#6B6B6B" stroke-width="2" mask="url(#path-1-outside-1_143_474)"/>
<path d="M255.782 40.9999C252.787 40.9999 250.222 40.3921 248.089 39.1767C245.957 37.949 244.321 36.2424 243.183 34.0571C242.044 31.8595 241.475 29.3119 241.475 26.4145C241.475 23.5171 242.044 20.9757 243.183 18.7904C244.321 16.5927 245.957 14.8862 248.089 13.6707C250.222 12.443 252.787 11.8292 255.782 11.8292C258.49 11.8292 260.833 12.3325 262.81 13.3393C264.799 14.3337 266.339 15.7456 267.429 17.5749C268.52 19.3919 269.071 21.5282 269.083 23.9836H259.88C259.748 22.4981 259.329 21.3686 258.622 20.5951C257.927 19.8094 257.028 19.4165 255.926 19.4165C255.063 19.4165 254.308 19.6743 253.661 20.19C253.014 20.6933 252.511 21.4607 252.152 22.4919C251.792 23.5109 251.612 24.7939 251.612 26.3408C251.612 27.8878 251.792 29.1769 252.152 30.2082C252.511 31.2272 253.014 31.9945 253.661 32.5102C254.308 33.0135 255.063 33.2652 255.926 33.2652C256.657 33.2652 257.304 33.0933 257.867 32.7496C258.43 32.3935 258.886 31.8779 259.233 31.2026C259.593 30.5151 259.808 29.6803 259.88 28.6981H269.083C269.047 31.1904 268.49 33.3634 267.411 35.2173C266.333 37.0589 264.805 38.483 262.828 39.4898C260.863 40.4965 258.514 40.9999 255.782 40.9999Z" stroke="#6B6B6B" stroke-width="2" mask="url(#path-1-outside-1_143_474)"/>
<path d="M283.098 24.5729V40.4842H273.176V2.76857H282.738V17.5749H283.026C283.649 15.7702 284.686 14.3644 286.135 13.3577C287.585 12.3387 289.329 11.8292 291.366 11.8292C293.319 11.8292 295.014 12.2834 296.452 13.1919C297.902 14.1005 299.023 15.3527 299.813 16.9488C300.616 18.5448 301.012 20.3741 301 22.4367V40.4842H291.078V24.5729C291.09 23.1733 290.749 22.0745 290.054 21.2765C289.371 20.4785 288.394 20.0795 287.124 20.0795C286.321 20.0795 285.614 20.2636 285.003 20.6319C284.404 20.988 283.937 21.5036 283.601 22.1789C283.278 22.8418 283.11 23.6399 283.098 24.5729Z" stroke="#6B6B6B" stroke-width="2" mask="url(#path-1-outside-1_143_474)"/>
<mask id="path-2-outside-2_143_474" maskUnits="userSpaceOnUse" x="-1" y="0" width="127" height="42" fill="black">
<rect fill="white" x="-1" width="127" height="42"/>
<path d="M21.7777 14.5541C21.6818 13.3263 21.2325 12.3687 20.4296 11.6812C19.6388 10.9937 18.4345 10.6499 16.8169 10.6499C15.7864 10.6499 14.9416 10.7788 14.2826 11.0366C13.6355 11.2822 13.1562 11.6198 12.8447 12.0495C12.5332 12.4792 12.3714 12.9703 12.3594 13.5228C12.3354 13.977 12.4133 14.3883 12.5931 14.7566C12.7848 15.1127 13.0844 15.438 13.4918 15.7327C13.8992 16.015 14.4204 16.2729 15.0555 16.5061C15.6905 16.7394 16.4454 16.9481 17.3202 17.1323L20.3398 17.7952C22.3768 18.2372 24.1202 18.8204 25.5701 19.5448C27.02 20.2691 28.2063 21.1224 29.1289 22.1046C30.0516 23.0745 30.7286 24.1671 31.16 25.3826C31.6033 26.598 31.831 27.924 31.843 29.3604C31.831 31.8404 31.2259 33.9398 30.0276 35.6586C28.8294 37.3774 27.1159 38.6849 24.8871 39.5812C22.6704 40.4774 20.0042 40.9255 16.8888 40.9255C13.6895 40.9255 10.8975 40.4406 8.51303 39.4707C6.14049 38.5008 4.29519 37.0091 2.97711 34.9956C1.67102 32.9699 1.01198 30.3794 1 27.2242H10.4901C10.5501 28.3782 10.8316 29.3481 11.3349 30.1339C11.8382 30.9196 12.5451 31.515 13.4558 31.9202C14.3785 32.3253 15.4749 32.5279 16.745 32.5279C17.8114 32.5279 18.7041 32.3929 19.4231 32.1228C20.142 31.8527 20.6872 31.4782 21.0587 30.9994C21.4302 30.5206 21.6219 29.9743 21.6339 29.3604C21.6219 28.7834 21.4362 28.28 21.0767 27.8503C20.7292 27.4083 20.154 27.0154 19.3512 26.6717C18.5484 26.3156 17.464 25.9842 16.0979 25.6772L12.4313 24.8669C9.17206 24.1426 6.60182 22.9333 4.72057 21.239C2.8513 19.5325 1.92265 17.2059 1.93463 14.2594C1.92265 11.8653 2.54574 9.77208 3.80391 7.97961C5.07405 6.17485 6.82949 4.76911 9.07021 3.76238C11.3229 2.75564 13.9052 2.25228 16.8169 2.25228C19.7886 2.25228 22.3588 2.76178 24.5276 3.78079C26.6965 4.7998 28.368 6.23624 29.5423 8.0901C30.7286 9.93168 31.3277 12.0863 31.3397 14.5541H21.7777Z"/>
<path d="M52.2521 12.1968V19.5632H34.0627V12.1968H52.2521ZM37.5856 5.4198H47.5071V31.3861C47.5071 31.779 47.573 32.1105 47.7048 32.3806C47.8366 32.6384 48.0403 32.8348 48.3159 32.9699C48.5915 33.0927 48.945 33.1541 49.3763 33.1541C49.6759 33.1541 50.0234 33.1172 50.4188 33.0436C50.8262 32.9699 51.1258 32.9085 51.3175 32.8594L52.7554 40.0047C52.3121 40.1398 51.677 40.3055 50.8502 40.502C50.0354 40.6984 49.0648 40.8273 47.9384 40.8887C45.6618 41.0115 43.7506 40.7721 42.2048 40.1705C40.6591 39.5566 39.4968 38.5929 38.7179 37.2792C37.9391 35.9655 37.5616 34.3204 37.5856 32.3438V5.4198Z"/>
<path d="M63.9935 40.9255C62.2321 40.9255 60.6743 40.6309 59.3203 40.0416C57.9783 39.44 56.9238 38.5315 56.1569 37.316C55.3901 36.1006 55.0066 34.5537 55.0066 32.6752C55.0066 31.1283 55.2642 29.8085 55.7795 28.7158C56.2947 27.6109 57.0137 26.7085 57.9363 26.0087C58.859 25.3089 59.9314 24.7748 61.1536 24.4065C62.3878 24.0382 63.7179 23.7988 65.1438 23.6883C66.6896 23.5655 67.9298 23.4182 68.8644 23.2463C69.811 23.0622 70.494 22.8105 70.9134 22.4913C71.3328 22.1598 71.5425 21.724 71.5425 21.1838V21.1101C71.5425 20.3735 71.2669 19.8087 70.7157 19.4158C70.1645 19.023 69.4575 18.8265 68.5948 18.8265C67.6482 18.8265 66.8753 19.0414 66.2762 19.4711C65.689 19.8885 65.3355 20.5331 65.2157 21.4047H56.085C56.2049 19.6859 56.7381 18.1022 57.6847 16.6535C58.6433 15.1925 60.0393 14.0261 61.8726 13.1545C63.7059 12.2705 65.9946 11.8285 68.7386 11.8285C70.7157 11.8285 72.4891 12.0679 74.0588 12.5467C75.6285 13.0133 76.9646 13.6701 78.0669 14.5172C79.1693 15.3521 80.0081 16.3343 80.5833 17.4638C81.1704 18.581 81.464 19.7964 81.464 21.1101V40.4836H72.1895V36.5057H71.9738C71.4226 37.5616 70.7516 38.4148 69.9608 39.0655C69.1819 39.7162 68.2892 40.1889 67.2827 40.4836C66.2881 40.7782 65.1917 40.9255 63.9935 40.9255ZM67.2288 34.5168C67.9837 34.5168 68.6906 34.3572 69.3497 34.038C70.0207 33.7188 70.5659 33.2584 70.9853 32.6568C71.4047 32.0552 71.6144 31.3247 71.6144 30.4653V28.1081C71.3508 28.2186 71.0692 28.323 70.7696 28.4212C70.482 28.5194 70.1705 28.6115 69.835 28.6974C69.5114 28.7834 69.1639 28.8632 68.7925 28.9368C68.433 29.0105 68.0556 29.078 67.6601 29.1394C66.8933 29.2622 66.2642 29.4647 65.7729 29.7471C65.2936 30.0172 64.9341 30.3548 64.6945 30.76C64.4668 31.1529 64.353 31.5948 64.353 32.0859C64.353 32.8717 64.6226 33.4733 65.1618 33.8907C65.701 34.3081 66.39 34.5168 67.2288 34.5168Z"/>
<path d="M102.74 12.1968V19.5632H84.2634V12.1968H102.74ZM87.7863 40.4836V11.3865C87.7863 9.05386 88.1937 7.1202 89.0085 5.58554C89.8233 4.05089 90.9736 2.90297 92.4594 2.14178C93.9453 1.38059 95.6947 1 97.7078 1C98.9659 1 100.188 1.09822 101.374 1.29466C102.573 1.49109 103.459 1.66297 104.035 1.8103L102.597 9.10297C102.237 8.99248 101.818 8.90653 101.338 8.84515C100.859 8.77148 100.44 8.73465 100.08 8.73465C99.1457 8.73465 98.5166 8.93723 98.1931 9.34238C97.8695 9.74752 97.7078 10.2816 97.7078 10.9446V40.4836H87.7863Z"/>
<path d="M123.105 12.1968V19.5632H104.628V12.1968H123.105ZM108.151 40.4836V11.3865C108.151 9.05386 108.558 7.1202 109.373 5.58554C110.188 4.05089 111.338 2.90297 112.824 2.14178C114.31 1.38059 116.059 1 118.072 1C119.33 1 120.552 1.09822 121.739 1.29466C122.937 1.49109 123.824 1.66297 124.399 1.8103L122.961 9.10297C122.601 8.99248 122.182 8.90653 121.703 8.84515C121.223 8.77148 120.804 8.73465 120.445 8.73465C119.51 8.73465 118.881 8.93723 118.557 9.34238C118.234 9.74752 118.072 10.2816 118.072 10.9446V40.4836H108.151Z"/>
</mask>
<path d="M21.7777 14.5541C21.6818 13.3263 21.2325 12.3687 20.4296 11.6812C19.6388 10.9937 18.4345 10.6499 16.8169 10.6499C15.7864 10.6499 14.9416 10.7788 14.2826 11.0366C13.6355 11.2822 13.1562 11.6198 12.8447 12.0495C12.5332 12.4792 12.3714 12.9703 12.3594 13.5228C12.3354 13.977 12.4133 14.3883 12.5931 14.7566C12.7848 15.1127 13.0844 15.438 13.4918 15.7327C13.8992 16.015 14.4204 16.2729 15.0555 16.5061C15.6905 16.7394 16.4454 16.9481 17.3202 17.1323L20.3398 17.7952C22.3768 18.2372 24.1202 18.8204 25.5701 19.5448C27.02 20.2691 28.2063 21.1224 29.1289 22.1046C30.0516 23.0745 30.7286 24.1671 31.16 25.3826C31.6033 26.598 31.831 27.924 31.843 29.3604C31.831 31.8404 31.2259 33.9398 30.0276 35.6586C28.8294 37.3774 27.1159 38.6849 24.8871 39.5812C22.6704 40.4774 20.0042 40.9255 16.8888 40.9255C13.6895 40.9255 10.8975 40.4406 8.51303 39.4707C6.14049 38.5008 4.29519 37.0091 2.97711 34.9956C1.67102 32.9699 1.01198 30.3794 1 27.2242H10.4901C10.5501 28.3782 10.8316 29.3481 11.3349 30.1339C11.8382 30.9196 12.5451 31.515 13.4558 31.9202C14.3785 32.3253 15.4749 32.5279 16.745 32.5279C17.8114 32.5279 18.7041 32.3929 19.4231 32.1228C20.142 31.8527 20.6872 31.4782 21.0587 30.9994C21.4302 30.5206 21.6219 29.9743 21.6339 29.3604C21.6219 28.7834 21.4362 28.28 21.0767 27.8503C20.7292 27.4083 20.154 27.0154 19.3512 26.6717C18.5484 26.3156 17.464 25.9842 16.0979 25.6772L12.4313 24.8669C9.17206 24.1426 6.60182 22.9333 4.72057 21.239C2.8513 19.5325 1.92265 17.2059 1.93463 14.2594C1.92265 11.8653 2.54574 9.77208 3.80391 7.97961C5.07405 6.17485 6.82949 4.76911 9.07021 3.76238C11.3229 2.75564 13.9052 2.25228 16.8169 2.25228C19.7886 2.25228 22.3588 2.76178 24.5276 3.78079C26.6965 4.7998 28.368 6.23624 29.5423 8.0901C30.7286 9.93168 31.3277 12.0863 31.3397 14.5541H21.7777Z" fill="url(#paint6_linear_143_474)"/>
<path d="M52.2521 12.1968V19.5632H34.0627V12.1968H52.2521ZM37.5856 5.4198H47.5071V31.3861C47.5071 31.779 47.573 32.1105 47.7048 32.3806C47.8366 32.6384 48.0403 32.8348 48.3159 32.9699C48.5915 33.0927 48.945 33.1541 49.3763 33.1541C49.6759 33.1541 50.0234 33.1172 50.4188 33.0436C50.8262 32.9699 51.1258 32.9085 51.3175 32.8594L52.7554 40.0047C52.3121 40.1398 51.677 40.3055 50.8502 40.502C50.0354 40.6984 49.0648 40.8273 47.9384 40.8887C45.6618 41.0115 43.7506 40.7721 42.2048 40.1705C40.6591 39.5566 39.4968 38.5929 38.7179 37.2792C37.9391 35.9655 37.5616 34.3204 37.5856 32.3438V5.4198Z" fill="url(#paint7_linear_143_474)"/>
<path d="M63.9935 40.9255C62.2321 40.9255 60.6743 40.6309 59.3203 40.0416C57.9783 39.44 56.9238 38.5315 56.1569 37.316C55.3901 36.1006 55.0066 34.5537 55.0066 32.6752C55.0066 31.1283 55.2642 29.8085 55.7795 28.7158C56.2947 27.6109 57.0137 26.7085 57.9363 26.0087C58.859 25.3089 59.9314 24.7748 61.1536 24.4065C62.3878 24.0382 63.7179 23.7988 65.1438 23.6883C66.6896 23.5655 67.9298 23.4182 68.8644 23.2463C69.811 23.0622 70.494 22.8105 70.9134 22.4913C71.3328 22.1598 71.5425 21.724 71.5425 21.1838V21.1101C71.5425 20.3735 71.2669 19.8087 70.7157 19.4158C70.1645 19.023 69.4575 18.8265 68.5948 18.8265C67.6482 18.8265 66.8753 19.0414 66.2762 19.4711C65.689 19.8885 65.3355 20.5331 65.2157 21.4047H56.085C56.2049 19.6859 56.7381 18.1022 57.6847 16.6535C58.6433 15.1925 60.0393 14.0261 61.8726 13.1545C63.7059 12.2705 65.9946 11.8285 68.7386 11.8285C70.7157 11.8285 72.4891 12.0679 74.0588 12.5467C75.6285 13.0133 76.9646 13.6701 78.0669 14.5172C79.1693 15.3521 80.0081 16.3343 80.5833 17.4638C81.1704 18.581 81.464 19.7964 81.464 21.1101V40.4836H72.1895V36.5057H71.9738C71.4226 37.5616 70.7516 38.4148 69.9608 39.0655C69.1819 39.7162 68.2892 40.1889 67.2827 40.4836C66.2881 40.7782 65.1917 40.9255 63.9935 40.9255ZM67.2288 34.5168C67.9837 34.5168 68.6906 34.3572 69.3497 34.038C70.0207 33.7188 70.5659 33.2584 70.9853 32.6568C71.4047 32.0552 71.6144 31.3247 71.6144 30.4653V28.1081C71.3508 28.2186 71.0692 28.323 70.7696 28.4212C70.482 28.5194 70.1705 28.6115 69.835 28.6974C69.5114 28.7834 69.1639 28.8632 68.7925 28.9368C68.433 29.0105 68.0556 29.078 67.6601 29.1394C66.8933 29.2622 66.2642 29.4647 65.7729 29.7471C65.2936 30.0172 64.9341 30.3548 64.6945 30.76C64.4668 31.1529 64.353 31.5948 64.353 32.0859C64.353 32.8717 64.6226 33.4733 65.1618 33.8907C65.701 34.3081 66.39 34.5168 67.2288 34.5168Z" fill="url(#paint8_linear_143_474)"/>
<path d="M102.74 12.1968V19.5632H84.2634V12.1968H102.74ZM87.7863 40.4836V11.3865C87.7863 9.05386 88.1937 7.1202 89.0085 5.58554C89.8233 4.05089 90.9736 2.90297 92.4594 2.14178C93.9453 1.38059 95.6947 1 97.7078 1C98.9659 1 100.188 1.09822 101.374 1.29466C102.573 1.49109 103.459 1.66297 104.035 1.8103L102.597 9.10297C102.237 8.99248 101.818 8.90653 101.338 8.84515C100.859 8.77148 100.44 8.73465 100.08 8.73465C99.1457 8.73465 98.5166 8.93723 98.1931 9.34238C97.8695 9.74752 97.7078 10.2816 97.7078 10.9446V40.4836H87.7863Z" fill="url(#paint9_linear_143_474)"/>
<path d="M123.105 12.1968V19.5632H104.628V12.1968H123.105ZM108.151 40.4836V11.3865C108.151 9.05386 108.558 7.1202 109.373 5.58554C110.188 4.05089 111.338 2.90297 112.824 2.14178C114.31 1.38059 116.059 1 118.072 1C119.33 1 120.552 1.09822 121.739 1.29466C122.937 1.49109 123.824 1.66297 124.399 1.8103L122.961 9.10297C122.601 8.99248 122.182 8.90653 121.703 8.84515C121.223 8.77148 120.804 8.73465 120.445 8.73465C119.51 8.73465 118.881 8.93723 118.557 9.34238C118.234 9.74752 118.072 10.2816 118.072 10.9446V40.4836H108.151Z" fill="url(#paint10_linear_143_474)"/>
<path d="M21.7777 14.5541C21.6818 13.3263 21.2325 12.3687 20.4296 11.6812C19.6388 10.9937 18.4345 10.6499 16.8169 10.6499C15.7864 10.6499 14.9416 10.7788 14.2826 11.0366C13.6355 11.2822 13.1562 11.6198 12.8447 12.0495C12.5332 12.4792 12.3714 12.9703 12.3594 13.5228C12.3354 13.977 12.4133 14.3883 12.5931 14.7566C12.7848 15.1127 13.0844 15.438 13.4918 15.7327C13.8992 16.015 14.4204 16.2729 15.0555 16.5061C15.6905 16.7394 16.4454 16.9481 17.3202 17.1323L20.3398 17.7952C22.3768 18.2372 24.1202 18.8204 25.5701 19.5448C27.02 20.2691 28.2063 21.1224 29.1289 22.1046C30.0516 23.0745 30.7286 24.1671 31.16 25.3826C31.6033 26.598 31.831 27.924 31.843 29.3604C31.831 31.8404 31.2259 33.9398 30.0276 35.6586C28.8294 37.3774 27.1159 38.6849 24.8871 39.5812C22.6704 40.4774 20.0042 40.9255 16.8888 40.9255C13.6895 40.9255 10.8975 40.4406 8.51303 39.4707C6.14049 38.5008 4.29519 37.0091 2.97711 34.9956C1.67102 32.9699 1.01198 30.3794 1 27.2242H10.4901C10.5501 28.3782 10.8316 29.3481 11.3349 30.1339C11.8382 30.9196 12.5451 31.515 13.4558 31.9202C14.3785 32.3253 15.4749 32.5279 16.745 32.5279C17.8114 32.5279 18.7041 32.3929 19.4231 32.1228C20.142 31.8527 20.6872 31.4782 21.0587 30.9994C21.4302 30.5206 21.6219 29.9743 21.6339 29.3604C21.6219 28.7834 21.4362 28.28 21.0767 27.8503C20.7292 27.4083 20.154 27.0154 19.3512 26.6717C18.5484 26.3156 17.464 25.9842 16.0979 25.6772L12.4313 24.8669C9.17206 24.1426 6.60182 22.9333 4.72057 21.239C2.8513 19.5325 1.92265 17.2059 1.93463 14.2594C1.92265 11.8653 2.54574 9.77208 3.80391 7.97961C5.07405 6.17485 6.82949 4.76911 9.07021 3.76238C11.3229 2.75564 13.9052 2.25228 16.8169 2.25228C19.7886 2.25228 22.3588 2.76178 24.5276 3.78079C26.6965 4.7998 28.368 6.23624 29.5423 8.0901C30.7286 9.93168 31.3277 12.0863 31.3397 14.5541H21.7777Z" stroke="#6B6B6B" stroke-width="2" mask="url(#path-2-outside-2_143_474)"/>
<path d="M52.2521 12.1968V19.5632H34.0627V12.1968H52.2521ZM37.5856 5.4198H47.5071V31.3861C47.5071 31.779 47.573 32.1105 47.7048 32.3806C47.8366 32.6384 48.0403 32.8348 48.3159 32.9699C48.5915 33.0927 48.945 33.1541 49.3763 33.1541C49.6759 33.1541 50.0234 33.1172 50.4188 33.0436C50.8262 32.9699 51.1258 32.9085 51.3175 32.8594L52.7554 40.0047C52.3121 40.1398 51.677 40.3055 50.8502 40.502C50.0354 40.6984 49.0648 40.8273 47.9384 40.8887C45.6618 41.0115 43.7506 40.7721 42.2048 40.1705C40.6591 39.5566 39.4968 38.5929 38.7179 37.2792C37.9391 35.9655 37.5616 34.3204 37.5856 32.3438V5.4198Z" stroke="#6B6B6B" stroke-width="2" mask="url(#path-2-outside-2_143_474)"/>
<path d="M63.9935 40.9255C62.2321 40.9255 60.6743 40.6309 59.3203 40.0416C57.9783 39.44 56.9238 38.5315 56.1569 37.316C55.3901 36.1006 55.0066 34.5537 55.0066 32.6752C55.0066 31.1283 55.2642 29.8085 55.7795 28.7158C56.2947 27.6109 57.0137 26.7085 57.9363 26.0087C58.859 25.3089 59.9314 24.7748 61.1536 24.4065C62.3878 24.0382 63.7179 23.7988 65.1438 23.6883C66.6896 23.5655 67.9298 23.4182 68.8644 23.2463C69.811 23.0622 70.494 22.8105 70.9134 22.4913C71.3328 22.1598 71.5425 21.724 71.5425 21.1838V21.1101C71.5425 20.3735 71.2669 19.8087 70.7157 19.4158C70.1645 19.023 69.4575 18.8265 68.5948 18.8265C67.6482 18.8265 66.8753 19.0414 66.2762 19.4711C65.689 19.8885 65.3355 20.5331 65.2157 21.4047H56.085C56.2049 19.6859 56.7381 18.1022 57.6847 16.6535C58.6433 15.1925 60.0393 14.0261 61.8726 13.1545C63.7059 12.2705 65.9946 11.8285 68.7386 11.8285C70.7157 11.8285 72.4891 12.0679 74.0588 12.5467C75.6285 13.0133 76.9646 13.6701 78.0669 14.5172C79.1693 15.3521 80.0081 16.3343 80.5833 17.4638C81.1704 18.581 81.464 19.7964 81.464 21.1101V40.4836H72.1895V36.5057H71.9738C71.4226 37.5616 70.7516 38.4148 69.9608 39.0655C69.1819 39.7162 68.2892 40.1889 67.2827 40.4836C66.2881 40.7782 65.1917 40.9255 63.9935 40.9255ZM67.2288 34.5168C67.9837 34.5168 68.6906 34.3572 69.3497 34.038C70.0207 33.7188 70.5659 33.2584 70.9853 32.6568C71.4047 32.0552 71.6144 31.3247 71.6144 30.4653V28.1081C71.3508 28.2186 71.0692 28.323 70.7696 28.4212C70.482 28.5194 70.1705 28.6115 69.835 28.6974C69.5114 28.7834 69.1639 28.8632 68.7925 28.9368C68.433 29.0105 68.0556 29.078 67.6601 29.1394C66.8933 29.2622 66.2642 29.4647 65.7729 29.7471C65.2936 30.0172 64.9341 30.3548 64.6945 30.76C64.4668 31.1529 64.353 31.5948 64.353 32.0859C64.353 32.8717 64.6226 33.4733 65.1618 33.8907C65.701 34.3081 66.39 34.5168 67.2288 34.5168Z" stroke="#6B6B6B" stroke-width="2" mask="url(#path-2-outside-2_143_474)"/>
<path d="M102.74 12.1968V19.5632H84.2634V12.1968H102.74ZM87.7863 40.4836V11.3865C87.7863 9.05386 88.1937 7.1202 89.0085 5.58554C89.8233 4.05089 90.9736 2.90297 92.4594 2.14178C93.9453 1.38059 95.6947 1 97.7078 1C98.9659 1 100.188 1.09822 101.374 1.29466C102.573 1.49109 103.459 1.66297 104.035 1.8103L102.597 9.10297C102.237 8.99248 101.818 8.90653 101.338 8.84515C100.859 8.77148 100.44 8.73465 100.08 8.73465C99.1457 8.73465 98.5166 8.93723 98.1931 9.34238C97.8695 9.74752 97.7078 10.2816 97.7078 10.9446V40.4836H87.7863Z" stroke="#6B6B6B" stroke-width="2" mask="url(#path-2-outside-2_143_474)"/>
<path d="M123.105 12.1968V19.5632H104.628V12.1968H123.105ZM108.151 40.4836V11.3865C108.151 9.05386 108.558 7.1202 109.373 5.58554C110.188 4.05089 111.338 2.90297 112.824 2.14178C114.31 1.38059 116.059 1 118.072 1C119.33 1 120.552 1.09822 121.739 1.29466C122.937 1.49109 123.824 1.66297 124.399 1.8103L122.961 9.10297C122.601 8.99248 122.182 8.90653 121.703 8.84515C121.223 8.77148 120.804 8.73465 120.445 8.73465C119.51 8.73465 118.881 8.93723 118.557 9.34238C118.234 9.74752 118.072 10.2816 118.072 10.9446V40.4836H108.151Z" stroke="#6B6B6B" stroke-width="2" mask="url(#path-2-outside-2_143_474)"/>
<defs>
<linearGradient id="paint0_linear_143_474" x1="213.816" y1="40.9999" x2="214" y2="-29" gradientUnits="userSpaceOnUse">
<stop stop-color="white"/>
<stop offset="1" stop-color="#5F5F5F"/>
</linearGradient>
<linearGradient id="paint1_linear_143_474" x1="213.816" y1="40.9999" x2="214" y2="-29" gradientUnits="userSpaceOnUse">
<stop stop-color="white"/>
<stop offset="1" stop-color="#5F5F5F"/>
</linearGradient>
<linearGradient id="paint2_linear_143_474" x1="213.816" y1="40.9999" x2="214" y2="-29" gradientUnits="userSpaceOnUse">
<stop stop-color="white"/>
<stop offset="1" stop-color="#5F5F5F"/>
</linearGradient>
<linearGradient id="paint3_linear_143_474" x1="213.816" y1="40.9999" x2="214" y2="-29" gradientUnits="userSpaceOnUse">
<stop stop-color="white"/>
<stop offset="1" stop-color="#5F5F5F"/>
</linearGradient>
<linearGradient id="paint4_linear_143_474" x1="213.816" y1="40.9999" x2="214" y2="-29" gradientUnits="userSpaceOnUse">
<stop stop-color="white"/>
<stop offset="1" stop-color="#5F5F5F"/>
</linearGradient>
<linearGradient id="paint5_linear_143_474" x1="213.816" y1="40.9999" x2="214" y2="-29" gradientUnits="userSpaceOnUse">
<stop stop-color="white"/>
<stop offset="1" stop-color="#5F5F5F"/>
</linearGradient>
<linearGradient id="paint6_linear_143_474" x1="62.3779" y1="-9.52301" x2="61.9034" y2="69.6544" gradientUnits="userSpaceOnUse">
<stop stop-color="#F17B1B"/>
<stop offset="1" stop-color="#FBB47C"/>
</linearGradient>
<linearGradient id="paint7_linear_143_474" x1="62.3779" y1="-9.52301" x2="61.9034" y2="69.6544" gradientUnits="userSpaceOnUse">
<stop stop-color="#F17B1B"/>
<stop offset="1" stop-color="#FBB47C"/>
</linearGradient>
<linearGradient id="paint8_linear_143_474" x1="62.3779" y1="-9.52301" x2="61.9034" y2="69.6544" gradientUnits="userSpaceOnUse">
<stop stop-color="#F17B1B"/>
<stop offset="1" stop-color="#FBB47C"/>
</linearGradient>
<linearGradient id="paint9_linear_143_474" x1="62.3779" y1="-9.52301" x2="61.9034" y2="69.6544" gradientUnits="userSpaceOnUse">
<stop stop-color="#F17B1B"/>
<stop offset="1" stop-color="#FBB47C"/>
</linearGradient>
<linearGradient id="paint10_linear_143_474" x1="62.3779" y1="-9.52301" x2="61.9034" y2="69.6544" gradientUnits="userSpaceOnUse">
<stop stop-color="#F17B1B"/>
<stop offset="1" stop-color="#FBB47C"/>
</linearGradient>
</defs>
</svg>
